<?xml version="1.0" encoding="UTF-8" standalone="no"?>
<!-- Created with Inkscape (http://www.inkscape.org/) -->

<svg
   xmlns:dc="http://purl.org/dc/elements/1.1/"
   xmlns:cc="http://creativecommons.org/ns#"
   xmlns:rdf="http://www.w3.org/1999/02/22-rdf-syntax-ns#"
   xmlns:svg="http://www.w3.org/2000/svg"
   xmlns="http://www.w3.org/2000/svg"
   xmlns:sodipodi="http://sodipodi.sourceforge.net/DTD/sodipodi-0.dtd"
   xmlns:inkscape="http://www.inkscape.org/namespaces/inkscape"
   width="173.34811"
   height="26"
   id="svg2"
   version="1.1"
   inkscape:version="0.92.1 r15371"
   sodipodi:docname="lines.svg"
   viewBox="0 0 156.0133 23.400003">
  <defs
     id="defs4" />
  <sodipodi:namedview
     id="base"
     pagecolor="#ffffff"
     bordercolor="#666666"
     borderopacity="1.0"
     inkscape:pageopacity="0.0"
     inkscape:pageshadow="2"
     inkscape:zoom="5.6568542"
     inkscape:cx="91.051724"
     inkscape:cy="20.197017"
     inkscape:document-units="in"
     inkscape:current-layer="layer1"
     showgrid="false"
     units="px"
     inkscape:window-width="1854"
     inkscape:window-height="1061"
     inkscape:window-x="-4"
     inkscape:window-y="-4"
     inkscape:window-maximized="1"
     width="1700mm"
     scale-x="0.9"
     fit-margin-top="0"
     fit-margin-left="0"
     fit-margin-right="0"
     fit-margin-bottom="0"
     inkscape:measure-start="68.2764,7.38156"
     inkscape:measure-end="103.792,7.3799">
    <inkscape:grid
       type="xygrid"
       id="grid4489"
       originx="-5.1868214"
       originy="28.254955" />
  </sodipodi:namedview>
  <metadata
     id="metadata7">
    <rdf:RDF>
      <cc:Work
         rdf:about="">
        <dc:format>image/svg+xml</dc:format>
        <dc:type
           rdf:resource="http://purl.org/dc/dcmitype/StillImage" />
        <dc:title></dc:title>
      </cc:Work>
    </rdf:RDF>
  </metadata>
  <g
     inkscape:label="Layer 1"
     inkscape:groupmode="layer"
     id="layer1"
     transform="translate(-5.1868222,-1089.5766)"
     style="display:inline">
    <g
       id="g3825"
       transform="matrix(0.1002024,0,0,0.1002024,-27.284661,1022.7387)"
       style="display:inline">
      <rect
         y="339.32385"
         x="317.32257"
         height="51.71981"
         width="1556.9818"
         id="rect3004"
         style="display:inline;fill:#666666;stroke:none;stroke-width:0.89336526" />
      <path
         inkscape:connector-curvature="0"
         id="rect3776"
         d="m 851.8,214.31701 c -22.9114,0 -39.8146,4.2767 -52.76667,11.26667 -0.0561,0.0299 -0.11068,0.0693 -0.16666,0.10027 -19.24975,9.59093 -29.18154,24.22602 -36.16667,39.93322 -15.47863,29.60352 -23.58764,63.03414 -59.53333,73.70006 -1.40157,0.41589 -2.79687,0.79669 -4.2,1.2 v 49.30005 c 1.40415,0.40405 2.79734,0.81707 4.2,1.23328 69.06387,20.49291 13.80003,125 148.63333,125 0.7846,0 1.62945,-0.0352 2.46667,-0.0661 1.52248,0.0309 3.05839,0.0661 4.63333,0.0661 32.22816,0 109.98037,-27.33333 139.93333,-27.33333 h 197.59997 c 29.953,0 107.7052,27.33333 139.9334,27.33333 1.5748,0 3.1108,-0.0363 4.6333,-0.0661 0.8372,0.032 1.682,0.0661 2.4667,0.0661 134.8332,0 79.5695,-104.50709 148.6334,-125 1.4025,-0.41621 2.7958,-0.82923 4.1998,-1.23328 v -49.30005 c -1.403,-0.40331 -2.7984,-0.78411 -4.1998,-1.2 -35.946,-10.66592 -44.0548,-44.09654 -59.5335,-73.70006 -6.9851,-15.7072 -16.9169,-30.34229 -36.1666,-39.93322 -0.057,-0.0309 -0.1106,-0.0693 -0.1666,-0.10027 -12.9521,-6.98997 -29.8554,-11.26667 -52.7667,-11.26667 -0.7716,0 -1.5822,0.0363 -2.4,0.0661 -1.5439,-0.0309 -3.1028,-0.0661 -4.7,-0.0661 -32.2282,0 -109.9804,27.33334 -139.9334,27.33334 H 998.83333 c -29.95296,0 -107.70517,-27.33334 -139.93333,-27.33334 -1.59737,0 -3.15611,0.0363 -4.7,0.0661 -0.81786,-0.0309 -1.62847,-0.0661 -2.4,-0.0661 z"
         style="display:inline;fill:#d9bb7a;fill-opacity:1;stroke:#565248;stroke-width:1.06666672" />
      <path
         id="rect3796"
         d="m 851.8,214.31701 c -3.9707,0 -7.74618,0.1179 -11.36667,0.36667 v 301.1 c 3.63421,0.17491 7.41358,0.26667 11.36667,0.26667 0.7846,0 1.62945,-0.0357 2.46667,-0.0667 1.52248,0.0309 3.05839,0.0667 4.63333,0.0667 12.94322,0 33.24994,-4.42383 54.83333,-9.7 V 224.01701 c -21.58339,-5.27617 -41.89011,-9.7 -54.83333,-9.7 -1.59737,0 -3.15611,0.0368 -4.7,0.0667 -0.81786,-0.0309 -1.62847,-0.0667 -2.4,-0.0667 z"
         style="display:inline;fill:#fdca01;fill-opacity:1;stroke:#986601;stroke-width:1.06666672"
         inkscape:connector-curvature="0" />
      <path
         id="rect3798"
         d="m 961.13333,235.65035 v 259.06666 c 15.20491,-3.48318 28.6491,-6 37.7,-6 H 1034.4 V 241.65035 h -35.56667 c -9.0509,0 -22.49509,-2.51682 -37.7,-6 z"
         style="display:inline;fill:#9e0097;fill-opacity:1;stroke:#430086;stroke-width:1.05599999;stroke-miterlimit:4;stroke-dasharray:none;stroke-opacity:1"
         inkscape:connector-curvature="0" />
      <path
         id="rect3800"
         d="m 1081.8,241.65035 v 247.06666 h 73.2667 V 241.65035 Z"
         style="display:inline;fill:#f44800;fill-opacity:1;stroke:#980101;stroke-width:1.06666672"
         inkscape:connector-curvature="0" />
      <path
         id="rect3819"
         d="m 1336.3667,214.31701 c -6.9205,0 -15.9385,1.28722 -26.1333,3.26667 v 295.2 c 10.1948,1.97945 19.2128,3.26667 26.1333,3.26667 1.5748,0 3.1108,-0.0368 4.6333,-0.0667 0.8372,0.032 1.682,0.0667 2.4667,0.0667 15.7914,0 28.9518,-1.43585 40.0332,-4 V 220.11701 c -10.8681,-3.66839 -23.9634,-5.8 -40.0332,-5.8 -0.7716,0 -1.5822,0.0368 -2.4,0.0667 -1.5439,-0.0309 -3.1029,-0.0667 -4.7,-0.0667 z"
         style="display:inline;fill:#c68401;fill-opacity:1;stroke:none;stroke-width:1.06666672"
         inkscape:connector-curvature="0" />
    </g>
    <path
       style="fill:#fcfcfc;fill-opacity:1;stroke:#060202;stroke-width:0.17929512;stroke-miterlimit:4;stroke-dasharray:none;stroke-opacity:1"
       d="m 52.462542,1103.4039 -7.726239,2.3115 7.726239,2.1885 v -1.5715 h 14.580443 v 0.011 h 32.294988 v -0.01 h 14.036287 v 1.5698 l 7.72624,-2.3098 -7.72624,-2.1902 v 1.5714 H 99.337973 v -0.019 H 67.042985 v 0.019 H 52.462542 Z"
       id="rect3687"
       inkscape:connector-curvature="0" />
    <rect
       id="rect3717"
       width="22.304602"
       height="1.1546003"
       x="-1112.7301"
       y="43.266697"
       style="fill:#fcfcfc;fill-opacity:1;stroke:#060202;stroke-width:0.19539978;stroke-miterlimit:4;stroke-dasharray:none;stroke-opacity:1"
       transform="rotate(-90)" />
    <rect
       transform="rotate(-90)"
       style="fill:#fcfcfc;fill-opacity:1;stroke:#060202;stroke-width:0.1852375;stroke-miterlimit:4;stroke-dasharray:none;stroke-opacity:1"
       y="121.19399"
       x="-1112.7205"
       height="1.1647625"
       width="22.314764"
       id="rect4498" />
  </g>
</svg>
